<?xml version="1.0" standalone="yes"?>
<svg xmlns="http://www.w3.org/2000/svg" width="819" height="532">
  <path style="fill:#2e2e2e;stroke:none" d="M0 0L0 532L819 532L819 29L808 29L808 24C801.711 23.9299 795.326 21.6483 792 16L787 16L787 8L784 8L784 0L768 0L768 8L767 8L767 0L0 0z"/>
  <path style="fill:#3f6882;stroke:none" d="M767 0L767 8L768 8L767 0M784 0L784 8L787 8L787 16L792 16C794.312 22.5219 801.842 23.9789 808 24L808 29L819 29L819 0L784 0M775 16L775 24L776 24L775 16M800 40L800 42L808 42L808 40L800 40z"/>
  <path style="fill:#f90525;stroke:none" d="M188 201.544C180.543 203.067 173.503 208.844 167 212.573C154.334 219.834 141.521 226.891 129 234.4C123.307 237.814 113.899 241.201 111.653 248.039C109.622 254.221 111 262.549 111 269L111 314C111 320.938 109.137 331.053 113.514 336.957C122.135 348.585 143.634 355.748 156 363.011C165.125 368.37 181.975 382.929 193 380.603C199.879 379.151 207.007 373.368 213 369.799C225.557 362.322 238.305 355.096 251 347.85C257.15 344.339 266.076 341.121 268.736 333.996C271.219 327.345 270 318.974 270 312L270 268C270 261.077 271.367 251.148 267.258 245.093C259.674 233.915 236.677 225.674 225 219.001C215.864 213.779 198.905 199.316 188 201.544z"/>
  <path style="fill:#2e2e2e;stroke:none" d="M171.995 234.668C167.115 235.945 158.494 240.565 156.028 245.093C153.841 249.108 155 255.572 155 260C155 271.577 151.42 290.169 155.603 300.96C157.759 306.521 170.11 313.653 176 312.319C185.243 310.226 197.126 301.862 204.941 296.532C207.514 294.778 211.118 289.117 205.852 287.933C192.033 284.826 181.869 310.781 167.059 300.045C158.743 294.017 163 270.416 163 261C163 257.562 162.089 252.431 164.028 249.39C167.037 244.671 175.462 244.658 177.338 238.915C178.555 235.19 174.975 233.889 171.995 234.668M217 257C213.24 255.38 209.252 252.125 205 252.321C196.632 252.706 178 264.313 172.318 270.379C169.055 273.863 167.624 291.12 172.313 293.928C174.498 295.237 176.971 294.085 177.682 291.772C181.192 280.35 176.685 276.92 189 269.85C193.244 267.414 200.54 261.188 205.576 261.464C211.038 261.763 216.983 270.361 222.566 268.292C227.344 266.521 225.753 247.664 223.258 244.329C211.498 228.612 198.018 236.974 185 244.421C181.593 246.37 167.587 251.853 171.851 257.64C174.734 261.553 181.174 256.462 184 254.85C194.034 249.126 216.447 234.14 217 257z"/>
  <path style="fill:#3f6882;stroke:none" d="M299 241L300 242L299 241z"/>
  <path style="fill:#ebeccf;stroke:none" d="M301 279L300 271L295 271C295.31 285.919 310.622 288.028 310.425 272C310.323 263.68 303.351 261.769 300.743 254.985C299.138 250.812 300.871 247.607 304 245L305 252L310 252C309.77 242.48 297.46 235.927 295.228 248.004C293.145 259.283 302.125 260.965 304.566 270.004C305.652 274.026 304.483 277.08 301 279z"/>
  <path style="fill:#3f6882;stroke:none" d="M305.667 241.333L306.333 241.667L305.667 241.333M322 241L323 242L322 241z"/>
  <path style="fill:#40aaeb;stroke:none" d="M323 241L324 242L323 241z"/>
  <path style="fill:#ebeccf;stroke:none" d="M318 284C324.267 282.954 323 277.18 323 272L328 272L328 284L333 284C333 273.084 333.73 261.884 332.91 251C332.582 246.653 331.1 241.882 325.996 241.533C320.865 241.183 318.485 245.528 318.094 250C317.118 261.17 318 272.787 318 284z"/>
  <path style="fill:#40aaeb;stroke:none" d="M327 241L328 242L327 241z"/>
  <path style="fill:#3f6882;stroke:none" d="M328 241L329 242L328 241M341 241L341 242L346 244C346.488 241.041 343.484 241.118 341 241M352 244L353 244L359 243C356.135 240.866 353.986 240.945 352 244M366 241L366 242L371 242L371 257C374.004 251.418 373.318 241.57 366 241M377 241L377 242L382 242L377 241M392 241L393 242L392 241z"/>
  <path style="fill:#40aaeb;stroke:none" d="M393 241L394 242L393 241z"/>
  <path style="fill:#ebeccf;stroke:none" d="M388 284L393 284L393 272L398 272C398 277.18 396.733 282.954 403 284C403 272.787 403.882 261.17 402.906 250C402.515 245.528 400.135 241.183 395.004 241.533C389.86 241.884 388.264 246.587 388.04 251C387.485 261.944 388 273.041 388 284z"/>
  <path style="fill:#40aaeb;stroke:none" d="M397 241L398 242L397 241z"/>
  <path style="fill:#3f6882;stroke:none" d="M398 241L399 242L398 241M411 241L411 242L421 242L411 241M449 241L449 242L455 242L449 241M463 241L463 242L468 243L463 241M474 241L474 242L479 242L479 284L480 254L479.398 243.318L474 241M487 241L487 242L496 242L487 241M510 241L510 242L516 242L510 241M520 275L521 275L521 242L526 242C516.658 238.451 520 268.984 520 275z"/>
  <path style="fill:#40aaeb;stroke:none" d="M537 241L538 242L537 241z"/>
  <path style="fill:#ebeccf;stroke:none" d="M538 271L533 271C533.031 274.666 532.799 279.627 535.703 282.397C539.929 286.428 546.816 283.142 547.772 277.995C550.444 263.608 536.409 258.954 539 245L543 252L548 252C547.77 242.48 535.46 235.927 533.228 248.004C531.17 259.144 539.799 261.086 542.485 270.015C544.656 277.23 538.286 279.774 538 271z"/>
  <path style="fill:#3f6882;stroke:none" d="M543.667 241.333L544.333 241.667L543.667 241.333M553 241L553 242L570 243L553 241M574 284L575 284L575 242L584 242C581.296 240.866 576.239 239.994 574.603 243.318C569.955 252.764 574 273.434 574 284M598 241L598 242L604 242L598 241M611 284L612 284L612 242L624 242C621.105 240.785 614.326 239.702 612.028 242.603C609.954 245.221 611 250.879 611 254L611 284M633 241L634 242L633 241z"/>
  <path style="fill:#ebeccf;stroke:none" d="M638 279L636 279L634 271L629 271C629.289 274.625 629.456 279.829 632.433 282.397C637.471 286.743 643.67 282.474 644.671 276.996C647.242 262.925 630.968 258.833 636 245L638 245L640 252L645 252C643.638 241.943 631.7 235.82 629.329 249.001C626.946 262.256 642.821 265.747 638 279z"/>
  <path style="fill:#3f6882;stroke:none" d="M640 241L641 242L640 241M297 242L298 243L297 242z"/>
  <path style="fill:#40aaeb;stroke:none" d="M307 242L308 243L307 242z"/>
  <path style="fill:#3f6882;stroke:none" d="M320 242L321 243L320 242z"/>
  <path style="fill:#ebeccf;stroke:none" d="M341 242L341 273C341 278.044 340.041 283.005 346 284L346 262L347 262C348.543 268.731 350.095 282.693 358 284L358 242L353 242L353 266C349.983 258.988 350.081 242.724 341 242M366 242L366 284L371 284L371 267L372 267C373.245 273.017 373.94 282.832 381 284L376.187 262L381 242L376 242L372 257L371 257L371 242L366 242z"/>
  <path style="fill:#40aaeb;stroke:none" d="M381 242L382 243L381 242z"/>
  <path style="fill:#3f6882;stroke:none" d="M390 242L391 243L390 242M400 242L401 243L400 242z"/>
  <path style="fill:#40aaeb;stroke:none" d="M411.333 242.667L411.667 243.333L411.333 242.667z"/>
  <path style="fill:#ebeccf;stroke:none" d="M412 284C419.554 282.688 417.319 270.725 416 265C424.559 264.259 422.999 277.958 423 284L428 284C427.937 276.41 425.584 268.521 426.07 261C426.4 255.901 429.074 247.794 424.486 243.742C421.271 240.903 412.536 240.676 411.38 245.634C408.724 257.023 410.548 272.512 412 284z"/>
  <path style="fill:#40aaeb;stroke:none" d="M423 242L424 243L423 242M449 242L450 243L449 242z"/>
  <path style="fill:#ebeccf;stroke:none" d="M454 284L454 242C451.255 242.458 449.657 243.02 449.148 246.059C447.906 253.47 445.636 282.604 454 284z"/>
  <path style="fill:#40aaeb;stroke:none" d="M454 242L454 247L455 247L454 242M462 242L463 243L462 242z"/>
  <path style="fill:#ebeccf;stroke:none" d="M463 242L463 284C470.959 282.672 468 269.261 468 263L469 263C469.881 269.539 471.475 282.755 479 284L479 242L474 242L474 266C471.437 259.205 471.409 243.399 463 242z"/>
  <path style="fill:#40aaeb;stroke:none" d="M487 242L488 243L487 242z"/>
  <path style="fill:#ebeccf;stroke:none" d="M488.603 243.028C485.927 245.147 487 251.02 487 254C487 262.065 485.021 273.114 487.318 280.852C488.649 285.336 496.629 284.719 499.57 282.258C505.689 277.137 504.608 253.871 501.968 247.019C500.242 242.541 492.747 239.746 488.603 243.028z"/>
  <path style="fill:#3f6882;stroke:none" d="M499 242L500 243L499 242z"/>
  <path style="fill:#ebeccf;stroke:none" d="M510 242C510 253.341 509.476 264.743 510.954 276C511.681 281.533 515.701 286.073 521.772 283.258C525.329 281.608 525.671 276.416 525.911 273C526.629 262.759 526 252.267 526 242L521 242L520 279L516 279L515 242L510 242z"/>
  <path style="fill:#40aaeb;stroke:none" d="M515 242L515 273L516 273L515 242z"/>
  <path style="fill:#3f6882;stroke:none" d="M535 242L536 243L535 242M545 242L546 243L545 242z"/>
  <path style="fill:#ebeccf;stroke:none" d="M553 242L553 246C563.525 247.679 559 275.408 559 284C568.155 282.472 564 253.857 564 246L569 246L569 242L553 242M575 242L575 284L580 284L580 264C590.457 267.146 581.057 282.273 591 284C591 275.011 588.993 265.902 590 257C590.47 252.848 591.346 246.67 587.683 243.603C584.545 240.976 578.807 242 575 242z"/>
  <path style="fill:#3f6882;stroke:none" d="M587 242L588 243L587 242z"/>
  <path style="fill:#40aaeb;stroke:none" d="M598 242L599 243L598 242z"/>
  <path style="fill:#ebeccf;stroke:none" d="M599 242L599 284L604 284L604 242L599 242M612 242L612 284L624 284L624 279L617 279L617 264C620.41 263.737 621.901 263.321 623 260L617 260L617 246L624 246L624 242L612 242z"/>
  <path style="fill:#3f6882;stroke:none" d="M631 242L632 243L631 242M642 242L643 243L642 242M296 243L297 244L296 243M308 243L309 244L308 243M319 243L320 244L319 243M331 243L332 244L331 243M381 243L382 244L381 243M389 243L390 244L389 243M401 243L402 244L401 243M462 243L463 244L462 243M500 243L501 244L500 243z"/>
  <path style="fill:#40aaeb;stroke:none" d="M534 243L535 244L534 243z"/>
  <path style="fill:#3f6882;stroke:none" d="M546 243L547 244L546 243M588 243L589 244L588 243M598 243L598 284L599 284C599 272.304 602.511 253.75 598 243M630 243L631 244L630 243M375 244L376 245L375 244z"/>
  <path style="fill:#40aaeb;stroke:none" d="M462 244L462 247L463 247L462 244z"/>
  <path style="fill:#3f6882;stroke:none" d="M501 244L502 245L501 244M533 244L534 245L533 244M589 244L590 245L589 244z"/>
  <path style="fill:#40aaeb;stroke:none" d="M630 244L631 245L630 244z"/>
  <path style="fill:#3f6882;stroke:none" d="M643 244L644 245L643 244M295 245L296 246L295 245M302 245L303 246L302 245z"/>
  <path style="fill:#40aaeb;stroke:none" d="M303 245L304 246L303 245M309 245L310 246L309 245z"/>
  <path style="fill:#3f6882;stroke:none" d="M318 245L319 246L318 245z"/>
  <path style="fill:#40aaeb;stroke:none" d="M325 245L326 246L325 245z"/>
  <path style="fill:#3f6882;stroke:none" d="M352 245L352 266L353 266L352 245M388 245L389 246L388 245z"/>
  <path style="fill:#40aaeb;stroke:none" d="M395.667 245.333L396.333 245.667L395.667 245.333z"/>
  <path style="fill:#3f6882;stroke:none" d="M402 245L403 246L402 245z"/>
  <path style="fill:#40aaeb;stroke:none" d="M411 245L412 246L411 245z"/>
  <path style="fill:#3f6882;stroke:none" d="M426 245L427 246L426 245M468 245L469 246L468 245z"/>
  <path style="fill:#40aaeb;stroke:none" d="M533 245L534 246L533 245M539 245L540 246L539 245z"/>
  <path style="fill:#3f6882;stroke:none" d="M540 245L541 246L540 245M547 245L548 246L547 245M636.667 245.333L637.333 245.667L636.667 245.333z"/>
  <path style="fill:#40aaeb;stroke:none" d="M304 246L305 247L304 246M318 246L319 247L318 246z"/>
  <path style="fill:#2e2e2e;stroke:none" d="M324 246L323 267L328 267L327 246L324 246z"/>
  <path style="fill:#3f6882;stroke:none" d="M332 246L333 247L332 246M347 246L348 247L347 246M380 246L381 247L380 246z"/>
  <path style="fill:#40aaeb;stroke:none" d="M388 246L389 247L388 246z"/>
  <path style="fill:#2e2e2e;stroke:none" d="M394 246L393 267L398 267L397 246L394 246z"/>
  <path style="fill:#40aaeb;stroke:none" d="M402 246L403 247L402 246z"/>
  <path style="fill:#2e2e2e;stroke:none" d="M417 246L417 259C423.886 257.804 423.949 247.16 417 246z"/>
  <path style="fill:#40aaeb;stroke:none" d="M426 246L427 247L426 246M468 246L469 247L468 246M492 246C492 253.12 488.346 276.46 496 279L496 278L493 278L492 246z"/>
  <path style="fill:#2e2e2e;stroke:none" d="M493 246L493 278L497 278C498.36 270.672 501.777 248.844 493 246z"/>
  <path style="fill:#3f6882;stroke:none" d="M496 246L497 247L496 246M553 246L554 247L553 246z"/>
  <path style="fill:#40aaeb;stroke:none" d="M554 246L554 247L558 247L554 246M564 246L564 247L569 247L564 246z"/>
  <path style="fill:#3f6882;stroke:none" d="M580 246L581 247L580 246z"/>
  <path style="fill:#2e2e2e;stroke:none" d="M580 247L581 259C586.55 257.158 587.056 245.922 580 247z"/>
  <path style="fill:#3f6882;stroke:none" d="M584 246L585 247L584 246M629 246L630 247L629 246M635 246L636 247L635 246M638 246L639 247L638 246z"/>
  <path style="fill:#40aaeb;stroke:none" d="M300 247L301 248L300 247z"/>
  <path style="fill:#3f6882;stroke:none" d="M304 247L305 248L304 247M323 247L324 248L323 247M327 247L327 250L328 250L327 247z"/>
  <path style="fill:#40aaeb;stroke:none" d="M332 247L333 248L332 247M347 247L348 248L347 247z"/>
  <path style="fill:#3f6882;stroke:none" d="M374 247L375 248L374 247z"/>
  <path style="fill:#40aaeb;stroke:none" d="M393 247L394 248L393 247z"/>
  <path style="fill:#3f6882;stroke:none" d="M397 247L398 248L397 247z"/>
  <path style="fill:#40aaeb;stroke:none" d="M416.333 247.667L416.667 248.333L416.333 247.667z"/>
  <path style="fill:#3f6882;stroke:none" d="M462 247L462 281L463 281L462 247z"/>
  <path style="fill:#40aaeb;stroke:none" d="M497 247L498 248L497 247z"/>
  <path style="fill:#3f6882;stroke:none" d="M502 247L503 248L502 247M538 247L539 248L538 247M542.333 247.667L542.667 248.333L542.333 247.667z"/>
  <path style="fill:#40aaeb;stroke:none" d="M558 247L558 283L559 283C559 272.613 562.011 256.56 558 247z"/>
  <path style="fill:#3f6882;stroke:none" d="M590.333 247.667L590.667 248.333L590.333 247.667z"/>
  <path style="fill:#40aaeb;stroke:none" d="M629 247L630 248L629 247z"/>
  <path style="fill:#3f6882;stroke:none" d="M644 247L645 248L644 247M300 248L300 251L301 251L300 248M310 248L309 253L310 248M393.333 248.667L393.667 249.333L393.333 248.667z"/>
  <path style="fill:#40aaeb;stroke:none" d="M454 248L454 280L455 280L454 248z"/>
  <path style="fill:#3f6882;stroke:none" d="M497.333 248.667L497.667 249.333L497.333 248.667z"/>
  <path style="fill:#40aaeb;stroke:none" d="M502 248L503 249L502 248z"/>
  <path style="fill:#3f6882;stroke:none" d="M532 248L532 257L533 257L532 248M580 248L580 259L581 259L580 248M585 248L585 256L586 256L585 248z"/>
  <path style="fill:#40aaeb;stroke:none" d="M634 248L634 251L635 251L634 248M644 248L645 249L644 248z"/>
  <path style="fill:#3f6882;stroke:none" d="M379 249L380 250L379 249M469 249L470 250L469 249M548 249L548 253L549 253L548 249z"/>
  <path style="fill:#40aaeb;stroke:none" d="M590.333 249.667L590.667 250.333L590.333 249.667M639.333 249.667L639.667 250.333L639.333 249.667z"/>
  <path style="fill:#3f6882;stroke:none" d="M317 250L317 282L318 282L317 250M348 250L349 251L348 250M373 250L374 251L373 250M403 250L403 284L404 284L403 250M294.333 251.667L294.667 252.333L294.333 251.667M333 251L333 284L334 284L333 251z"/>
  <path style="fill:#40aaeb;stroke:none" d="M348 251L349 252L348 251M373 251L374 252L373 251z"/>
  <path style="fill:#3f6882;stroke:none" d="M387 251L387 284L388 284L387 251M427.333 251.667L427.667 252.333L427.333 251.667M634.333 251.667L634.667 252.333L634.333 251.667M639.333 251.667L639.667 252.333L639.333 251.667M305 252L306 253L305 252z"/>
  <path style="fill:#40aaeb;stroke:none" d="M306 252L307 253L306 252z"/>
  <path style="fill:#3f6882;stroke:none" d="M307 252L308 253L307 252z"/>
  <path style="fill:#40aaeb;stroke:none" d="M308 252L309 253L308 252z"/>
  <path style="fill:#3f6882;stroke:none" d="M378 252L379 253L378 252M470.333 252.667L470.667 253.333L470.333 252.667M543 252L544 253L543 252z"/>
  <path style="fill:#40aaeb;stroke:none" d="M544 252L544 253L548 253L544 252M640 252L640 253L644 253L640 252z"/>
  <path style="fill:#3f6882;stroke:none" d="M644 252L645 253L644 252M300 253L300 256L301 256L300 253z"/>
  <path style="fill:#40aaeb;stroke:none" d="M590.333 253.667L590.667 254.333L590.333 253.667M634.333 253.667L634.667 254.333L634.333 253.667z"/>
  <path style="fill:#3f6882;stroke:none" d="M349 254L350 255L349 254z"/>
  <path style="fill:#40aaeb;stroke:none" d="M372 254L373 255L372 254M377 255L378 256L377 255z"/>
  <path style="fill:#3f6882;stroke:none" d="M538 255L539 256L538 255M590 255L590 258L591 258L590 255M471.333 256.667L471.667 257.333L471.333 256.667z"/>
  <path style="fill:#40aaeb;stroke:none" d="M538 256L539 257L538 256M585 256L586 257L585 256z"/>
  <path style="fill:#3f6882;stroke:none" d="M635 256L636 257L635 256M301 257L302 258L301 257M350.333 257.667L350.667 258.333L350.333 257.667z"/>
  <path style="fill:#40aaeb;stroke:none" d="M416 257L417 258L416 257z"/>
  <path style="fill:#3f6882;stroke:none" d="M421 257L422 258L421 257M539 257L540 258L539 257M629 257L630 258L629 257z"/>
  <path style="fill:#40aaeb;stroke:none" d="M635 257L636 258L635 257z"/>
  <path style="fill:#3f6882;stroke:none" d="M295 258L296 259L295 258M302 258L303 259L302 258z"/>
  <path style="fill:#40aaeb;stroke:none" d="M376 258L377 259L376 258M421 258L422 259L421 258z"/>
  <path style="fill:#3f6882;stroke:none" d="M426.333 258.667L426.667 259.333L426.333 258.667z"/>
  <path style="fill:#40aaeb;stroke:none" d="M533 258L534 259L533 258z"/>
  <path style="fill:#3f6882;stroke:none" d="M584 258L585 259L584 258M636 258L637 259L636 258M303 259L304 260L303 259M376 259L377 260L376 259z"/>
  <path style="fill:#40aaeb;stroke:none" d="M417 259L417 260L421 260L417 259z"/>
  <path style="fill:#3f6882;stroke:none" d="M541 259L542 260L541 259z"/>
  <path style="fill:#40aaeb;stroke:none" d="M580 259L580 260L584 260L580 259M617 259L617 260L622 260L617 259z"/>
  <path style="fill:#3f6882;stroke:none" d="M622 259L623 260L622 259z"/>
  <path style="fill:#40aaeb;stroke:none" d="M630 259L631 260L630 259M637 259L638 260L637 259z"/>
  <path style="fill:#3f6882;stroke:none" d="M296 260L297 261L296 260M472 260L473 261L472 260M534 260L535 261L534 260z"/>
  <path style="fill:#40aaeb;stroke:none" d="M542 260L543 261L542 260z"/>
  <path style="fill:#3f6882;stroke:none" d="M589 260L590 261L589 260M639 260L640 261L639 260M297 261L298 262L297 261M425.333 261.667L425.667 262.333L425.333 261.667z"/>
  <path style="fill:#40aaeb;stroke:none" d="M472 261L473 262L472 261M535 261L536 262L535 261z"/>
  <path style="fill:#3f6882;stroke:none" d="M544 261L545 262L544 261M631 261L632 262L631 261M640 261L641 262L640 261M298 262L299 263L298 262M307 262L308 263L307 262z"/>
  <path style="fill:#40aaeb;stroke:none" d="M346 262L347 263L346 262M351 262L352 263L351 262z"/>
  <path style="fill:#3f6882;stroke:none" d="M536 262L537 263L536 262M545 262L546 263L545 262M632 262L633 263L632 262z"/>
  <path style="fill:#40aaeb;stroke:none" d="M641 262L642 263L641 262z"/>
  <path style="fill:#3f6882;stroke:none" d="M308 263L309 264L308 263M346 263L347 266L348 266L346 263M468.333 263.667L468.667 264.333L468.333 263.667M537 263L538 264L537 263M546 263L547 264L546 263M589 263L590 264L589 263z"/>
  <path style="fill:#40aaeb;stroke:none" d="M622 263L623 264L622 263M634 263L635 264L634 263M642 263L643 264L642 263M301 264L302 265L301 264M346 264L346 268L347 268L346 264z"/>
  <path style="fill:#3f6882;stroke:none" d="M376 264L377 265L376 264M420 264L421 265L420 264M426.333 264.667L426.667 265.333L426.333 264.667M473 264L474 265L473 264M580 264L581 265L580 264M635 264L636 265L635 264M643 264L644 265L643 264M302 265L303 266L302 265z"/>
  <path style="fill:#40aaeb;stroke:none" d="M309 265L310 266L309 265M376 265L377 266L376 265M416.333 265.667L416.667 266.333L416.333 265.667M421 265L422 266L421 265M473 265L474 266L473 265M540 265L541 266L540 265z"/>
  <path style="fill:#3f6882;stroke:none" d="M547 265L548 266L547 265M584 265L585 266L584 265M636 265L637 266L636 265M303 266L304 267L303 266M421.333 266.667L421.667 267.333L421.333 266.667z"/>
  <path style="fill:#40aaeb;stroke:none" d="M469 266L470 267L469 266z"/>
  <path style="fill:#3f6882;stroke:none" d="M637 266L638 267L637 266M644 266L645 267L644 266M310.333 267.667L310.667 268.333L310.333 267.667z"/>
  <path style="fill:#40aaeb;stroke:none" d="M323 267L324 268L323 267z"/>
  <path style="fill:#3f6882;stroke:none" d="M324 267L325 268L324 267z"/>
  <path style="fill:#40aaeb;stroke:none" d="M325.667 267.333L326.333 267.667L325.667 267.333z"/>
  <path style="fill:#3f6882;stroke:none" d="M327 267L328 268L327 267z"/>
  <path style="fill:#40aaeb;stroke:none" d="M348 267L349 268L348 267z"/>
  <path style="fill:#3f6882;stroke:none" d="M371 267L371 284L372 284L371 267M377.333 267.667L377.667 268.333L377.333 267.667z"/>
  <path style="fill:#40aaeb;stroke:none" d="M393 267L393 268L398 268L393 267z"/>
  <path style="fill:#3f6882;stroke:none" d="M469 267L470 268L469 267M580 267L580 281L581 281L580 267M590.333 267.667L590.667 268.333L590.333 267.667M638 267L639 268L638 267z"/>
  <path style="fill:#40aaeb;stroke:none" d="M644 267L645 268L644 267z"/>
  <path style="fill:#3f6882;stroke:none" d="M304 268L305 269L304 268M346.333 268.667L346.667 269.333L346.333 268.667M348 268L349 269L348 268M542.333 268.667L542.667 269.333L542.333 268.667M548 268L548 272L549 272L548 268z"/>
  <path style="fill:#40aaeb;stroke:none" d="M585 268L586 269L585 268M310.333 269.667L310.667 270.333L310.333 269.667M372 269L373 270L372 269z"/>
  <path style="fill:#3f6882;stroke:none" d="M585 269L585 274L586 274L585 269z"/>
  <path style="fill:#40aaeb;stroke:none" d="M590.333 269.667L590.667 270.333L590.333 269.667M639.333 269.667L639.667 270.333L639.333 269.667z"/>
  <path style="fill:#2e2e2e;stroke:none" d="M202 270.819C199.222 271.75 178.602 283.533 189.148 285.917C197.654 287.841 210.126 271.009 216.397 287.043C219.825 295.81 217 310.608 217 320C217 323.715 217.775 328.558 215.972 331.957C213.041 337.483 204.767 337.773 202.086 343.205C200.638 346.142 203.04 348.654 206.019 348.461C230.09 346.903 225 319.296 225 303C225 296.795 226.614 287.867 224.258 282.043C221.727 275.789 208.52 268.633 202 270.819z"/>
  <path style="fill:#40aaeb;stroke:none" d="M346 270L346 277L347 277L346 270z"/>
  <path style="fill:#3f6882;stroke:none" d="M470 270L471 271L470 270M294 271L295 272L294 271M349 271L350 272L349 271M378 271L379 272L378 271z"/>
  <path style="fill:#40aaeb;stroke:none" d="M416 271L417 272L416 271z"/>
  <path style="fill:#3f6882;stroke:none" d="M427 271L427 275L428 275L427 271M532 271L532 275L533 275L532 271M634 271L635 272L634 271M639 271L639 275L640 275L639 271z"/>
  <path style="fill:#40aaeb;stroke:none" d="M378 272L379 273L378 272M510 272L510 275L511 275L510 272M548 272L549 273L548 272M634.333 272.667L634.667 273.333L634.333 272.667z"/>
  <path style="fill:#3f6882;stroke:none" d="M300 273L300 277L301 277L300 273z"/>
  <path style="fill:#40aaeb;stroke:none" d="M310 273L310 277L311 277L310 273z"/>
  <path style="fill:#3f6882;stroke:none" d="M373 273L374 274L373 273z"/>
  <path style="fill:#40aaeb;stroke:none" d="M422 273L422 276L423 276L422 273z"/>
  <path style="fill:#3f6882;stroke:none" d="M471.333 273.667L471.667 274.333L471.333 273.667M548 273L548 278L549 278L548 273M350 274L351 275L350 274z"/>
  <path style="fill:#40aaeb;stroke:none" d="M515 274L516 275L515 274z"/>
  <path style="fill:#3f6882;stroke:none" d="M379 275L380 276L379 275z"/>
  <path style="fill:#40aaeb;stroke:none" d="M427.333 275.667L427.667 276.333L427.333 275.667z"/>
  <path style="fill:#3f6882;stroke:none" d="M497 275L498 276L497 275M510 275L510 278L511 278L510 275z"/>
  <path style="fill:#40aaeb;stroke:none" d="M520 275L521 276L520 275z"/>
  <path style="fill:#3f6882;stroke:none" d="M538.333 275.667L538.667 276.333L538.333 275.667z"/>
  <path style="fill:#40aaeb;stroke:none" d="M629 275L630 276L629 275M639 275L640 276L639 275M374 276L375 277L374 276z"/>
  <path style="fill:#3f6882;stroke:none" d="M422 276L422 282L423 282L422 276z"/>
  <path style="fill:#40aaeb;stroke:none" d="M472 276L473 277L472 276M497 276L498 277L497 276M502 276L503 277L502 276M525 276L526 277L525 276z"/>
  <path style="fill:#3f6882;stroke:none" d="M629 276L629 279L630 279L629 276z"/>
  <path style="fill:#40aaeb;stroke:none" d="M295 277L296 278L295 277z"/>
  <path style="fill:#3f6882;stroke:none" d="M304 277L305 278L304 277M310.333 277.667L310.667 278.333L310.333 277.667M346 277L346 282L347 282L346 277z"/>
  <path style="fill:#40aaeb;stroke:none" d="M351 277L352 278L351 277z"/>
  <path style="fill:#3f6882;stroke:none" d="M374 277L375 278L374 277M472 277L473 278L472 277M502.333 277.667L502.667 278.333L502.333 277.667M516.333 277.667L516.667 278.333L516.333 277.667M525.333 277.667L525.667 278.333L525.333 277.667z"/>
  <path style="fill:#40aaeb;stroke:none" d="M538 277L539 278L538 277z"/>
  <path style="fill:#3f6882;stroke:none" d="M542 277L543 278L542 277M591 277L591 281L592 281L591 277M295 278L296 279L295 278M301 278L302 279L301 278M351 278L352 279L351 278M380 278L381 279L380 278M519 278L520 279L519 278z"/>
  <path style="fill:#40aaeb;stroke:none" d="M533 278L534 279L533 278z"/>
  <path style="fill:#3f6882;stroke:none" d="M539 278L540 279L539 278M541 278L542 279L541 278z"/>
  <path style="fill:#40aaeb;stroke:none" d="M617 278L618 279L617 278z"/>
  <path style="fill:#3f6882;stroke:none" d="M618 278L619 279L618 278z"/>
  <path style="fill:#40aaeb;stroke:none" d="M619 278L619 279L623 279L619 278z"/>
  <path style="fill:#3f6882;stroke:none" d="M623 278L624 279L623 278z"/>
  <path style="fill:#40aaeb;stroke:none" d="M644 278L645 279L644 278M380 279L381 280L380 279z"/>
  <path style="fill:#3f6882;stroke:none" d="M533 279L534 280L533 279M644 279L645 280L644 279z"/>
  <path style="fill:#40aaeb;stroke:none" d="M309 280L310 281L309 280M352 280L353 281L352 280z"/>
  <path style="fill:#3f6882;stroke:none" d="M375 280L376 281L375 280z"/>
  <path style="fill:#40aaeb;stroke:none" d="M411 280L411 283L412 283L411 280z"/>
  <path style="fill:#3f6882;stroke:none" d="M473 280L474 281L473 280z"/>
  <path style="fill:#40aaeb;stroke:none" d="M501 280L502 281L501 280z"/>
  <path style="fill:#3f6882;stroke:none" d="M511 280L512 281L511 280M547 280L548 281L547 280M630.333 280.667L630.667 281.333L630.333 280.667M296 281L297 282L296 281M352 281L353 282L352 281M381 281L382 282L381 281z"/>
  <path style="fill:#40aaeb;stroke:none" d="M454.333 281.667L454.667 282.333L454.333 281.667M462 281L463 282L462 281z"/>
  <path style="fill:#3f6882;stroke:none" d="M501 281L502 282L501 281M524 281L525 282L524 281z"/>
  <path style="fill:#40aaeb;stroke:none" d="M534 281L535 282L534 281M591 281L591 284L592 284L591 281z"/>
  <path style="fill:#3f6882;stroke:none" d="M643 281L644 282L643 281z"/>
  <path style="fill:#40aaeb;stroke:none" d="M297 282L298 283L297 282z"/>
  <path style="fill:#3f6882;stroke:none" d="M308 282L309 283L308 282z"/>
  <path style="fill:#40aaeb;stroke:none" d="M317 282L318 283L317 282M346 282L347 283L346 282M381.333 282.667L381.667 283.333L381.333 282.667M416.333 282.667L416.667 283.333L416.333 282.667z"/>
  <path style="fill:#3f6882;stroke:none" d="M462.333 282.667L462.667 283.333L462.333 282.667M512 282L513 283L512 282M546 282L547 283L546 282z"/>
  <path style="fill:#40aaeb;stroke:none" d="M586 282L587 283L586 282z"/>
  <path style="fill:#3f6882;stroke:none" d="M631 282L632 283L631 282M298 283L299 284L298 283M307 283L308 284L307 283M317 283L318 284L317 283z"/>
  <path style="fill:#40aaeb;stroke:none" d="M322 283L323 284L322 283M341 283L342 284L341 283z"/>
  <path style="fill:#3f6882;stroke:none" d="M346 283L347 284L346 283z"/>
  <path style="fill:#40aaeb;stroke:none" d="M353 283L354 284L353 283z"/>
  <path style="fill:#3f6882;stroke:none" d="M376 283L377 284L376 283z"/>
  <path style="fill:#40aaeb;stroke:none" d="M398 283L399 284L398 283z"/>
  <path style="fill:#3f6882;stroke:none" d="M411 283L412 284L411 283M428 283L429 284L428 283z"/>
  <path style="fill:#40aaeb;stroke:none" d="M449 283L450 284L449 283z"/>
  <path style="fill:#3f6882;stroke:none" d="M454 283L455 284L454 283z"/>
  <path style="fill:#40aaeb;stroke:none" d="M467 283L468 284L467 283z"/>
  <path style="fill:#3f6882;stroke:none" d="M474 283L475 284L474 283z"/>
  <path style="fill:#40aaeb;stroke:none" d="M487 283L488 284L487 283z"/>
  <path style="fill:#3f6882;stroke:none" d="M498 283L499 284L498 283M513 283L514 284L513 283M522 283L523 284L522 283M545 283L546 284L545 283M558 283L559 284L558 283z"/>
  <path style="fill:#40aaeb;stroke:none" d="M563 283L564 284L563 283z"/>
  <path style="fill:#3f6882;stroke:none" d="M586 283L587 284L586 283M632 283L633 284L632 283M641 283L642 284L641 283M300 284L300 285L305 285L300 284M515.667 284.333L516.333 284.667L515.667 284.333z"/>
  <path style="fill:#40aaeb;stroke:none" d="M517.667 284.333L518.333 284.667L517.667 284.333z"/>
  <path style="fill:#3f6882;stroke:none" d="M519.667 284.333L520.333 284.667L519.667 284.333M538.667 284.333L539.333 284.667L538.667 284.333z"/>
  <path style="fill:#40aaeb;stroke:none" d="M540 284L541 285L540 284z"/>
  <path style="fill:#3f6882;stroke:none" d="M541.667 284.333L542.333 284.667L541.667 284.333M635 284L636 285L635 284z"/>
  <path style="fill:#40aaeb;stroke:none" d="M636 284L637 285L636 284z"/>
  <path style="fill:#3f6882;stroke:none" d="M637 284L637 285L640 285L637 284M402 300L403 301L402 300M405 300L406 301L405 300M417 300L417 301L420 301L420 306C408.1 306.391 413 333.827 413 343L414 343L414 307C419.107 306.832 423.914 302.296 417 300M497 303L498 303L503 301C500.12 299.902 498.65 300.445 497 303M514 343L513 301L523 302C520.565 299.214 513.615 298.778 512.318 303.148C509.773 311.719 511.999 324.06 512 333C512 336.516 511.214 340.565 514 343M529 303L530 303L539 301L539 343C542.425 334.838 542.232 311.736 539.682 303.148C538.204 298.17 531.148 299.687 529 303M581.667 300.333L582.333 300.667L581.667 300.333M601 304L606 301L601 304z"/>
  <path style="fill:#40aaeb;stroke:none" d="M607 338L606 329L600 329C600.359 332.682 600.007 337.448 602.728 340.348C607.775 345.726 615.189 341.36 615.891 334.999C617.152 323.571 606.04 317.328 606 306C610.292 307.303 610.861 309.735 611 314L616 314C615.997 310.129 616.489 305.592 613.427 302.653C607.417 296.881 600.524 303.299 600.265 310C599.962 317.839 606.768 322.44 609.717 329C611.495 332.955 610.046 335.461 607 338z"/>
  <path style="fill:#3f6882;stroke:none" d="M610.667 300.333L611.333 300.667L610.667 300.333M626 307L627 307L632 301C628.159 300.452 626.81 303.674 626 307z"/>
  <path style="fill:#40aaeb;stroke:none" d="M633 338L632 329L626 329C626.011 332.853 625.687 337.383 628.653 340.347C633.91 345.602 640.926 341.454 641.811 334.999C643.36 323.706 632.039 317.344 632 306C636.154 307.312 636.772 309.858 637 314L642 314C641.989 310.149 642.315 305.613 639.347 302.653C633.859 297.177 626.976 302.725 626.193 309C625.095 317.804 633.077 322.535 635.895 330C637.272 333.647 635.691 335.751 633 338z"/>
  <path style="fill:#3f6882;stroke:none" d="M636 300L637 301L636 300M652 300L652 301L657 301L657 342L652 342L652 343L658 343L658 300L652 300M692 303L693 303L698 301L698 337C701.234 329.294 700.266 312.357 698.852 304.059C698.079 299.524 694.116 299.747 692 303z"/>
  <path style="fill:#40aaeb;stroke:none" d="M330 301L330 343C334.188 342.997 339.255 343.531 342.606 340.486C348.222 335.384 348.646 309.824 343.566 304.279C340.119 300.515 334.638 301.003 330 301z"/>
  <path style="fill:#3f6882;stroke:none" d="M339.667 301.333L340.333 301.667L339.667 301.333M360 301L361 302L360 301z"/>
  <path style="fill:#40aaeb;stroke:none" d="M361.055 301.747C353.1 304.871 354.367 330.088 356.653 336.957C357.923 340.773 361.911 343.589 365.981 342.215C375.117 339.128 373.427 315.446 371.276 308.001C369.983 303.523 365.931 299.832 361.055 301.747z"/>
  <path style="fill:#3f6882;stroke:none" d="M367 301L368 302L367 301z"/>
  <path style="fill:#40aaeb;stroke:none" d="M400 301L400 306L408 306L408 343L413 343C413 333.955 408.201 306.9 420 306L420 301L400 301M429 301L429 330C429 333.02 427.922 338.869 430.023 341.353C432.114 343.824 434.473 341.056 434.852 338.891C435.898 332.912 435 326.069 435 320L440 321L440 343C445.959 342.005 445 337.044 445 332L445 301L440 301L440 315L434 315C435.738 309.12 436.561 301.589 429 301z"/>
  <path style="fill:#3f6882;stroke:none" d="M434 301L435 302L434 301M445 301L444 343L446 332L445 301M455 301L456 302L455 301z"/>
  <path style="fill:#40aaeb;stroke:none" d="M460 337L461 320C469.993 322.561 469.452 315.033 460 315L461 306L469 306L469 301C465.65 301 458.37 299.646 456.028 302.603C454.228 304.875 455 309.307 455 312C455 318.598 451.873 336.151 456.028 341.397C461.11 347.814 474.387 337.969 464.174 337.175L460 337M503 342L503 301L498.026 303.318L497.985 330L497.641 339.682L503 342M513 301L513 332C513 337.044 512.041 342.005 518 343L518 312L519 312L522.247 334.999L526 342.248L529.753 335L533 312L534 312C534 319.223 530.205 341.532 539 343L539 301C526.626 301.01 527.088 312.386 527 323C521.658 313.041 527.548 301.011 513 301M549 301L550 343L554 343L555 334C566.679 333.36 569.245 312.614 563.142 304.228C560.027 299.949 553.622 301 549 301z"/>
  <path style="fill:#3f6882;stroke:none" d="M560.667 301.333L561.333 301.667L560.667 301.333M575 306L576 306L580 302L575 306z"/>
  <path style="fill:#40aaeb;stroke:none" d="M580.044 301.758C572.057 304.745 573.451 330.011 575.434 336.981C576.61 341.117 580.837 343.508 584.956 341.951C592.68 339.031 592.045 312.778 589.397 306.044C587.971 302.42 583.748 300.372 580.044 301.758z"/>
  <path style="fill:#3f6882;stroke:none" d="M585.667 301.333L586.333 301.667L585.667 301.333M612 301L613 302L612 301M638 301L639 302L638 301z"/>
  <path style="fill:#40aaeb;stroke:none" d="M652 301L652 342L657 342L657 301L652 301z"/>
  <path style="fill:#3f6882;stroke:none" d="M667.333 301.667L667.667 302.333L667.333 301.667z"/>
  <path style="fill:#40aaeb;stroke:none" d="M668 343C685.802 342.988 683.371 331.111 681.716 317.015C681.185 312.489 682.896 307.385 679.297 303.653C671.532 295.599 666.448 304.544 667.424 312C667.993 316.347 668 320.62 668 325L668 343z"/>
  <path style="fill:#3f6882;stroke:none" d="M676.667 301.333L677.333 301.667L676.667 301.333z"/>
  <path style="fill:#40aaeb;stroke:none" d="M693 301L693 343L706 343L706 337L698 337L698 301L693 301M716 301L716.011 330.996L717.607 341.976L730 343L730 337L722 337L722 320C730.477 322.414 730.958 315.217 722 315L722 306L730 306L730 301L716 301z"/>
  <path style="fill:#3f6882;stroke:none" d="M329 302L330 303L329 302M342 302L343 303L342 302M358 302L359 303L358 302M368 302L370 304L370 302L368 302M562 302L563 303L562 302M587 302L588 303L587 302M614.333 302.667L614.667 303.333L614.333 302.667M678.667 302.333L679.333 302.667L678.667 302.333M343 303L344 304L343 303M357 303L358 304L357 303M439 303L439 312L440 312L439 303M563 303L564 304L563 303M588 303L589 304L588 303M640 303L641 304L640 303M344 304L345 305L344 304M370 304L371 305L370 304M497 304L497 336L498 336L497 304M589 304L590 305L589 304M615 304L616 305L615 304M641.333 304.667L641.667 305.333L641.333 304.667M680 304L681 305L680 304z"/>
  <path style="fill:#2e2e2e;stroke:none" d="M163 326C172.868 330.606 176.323 331.21 185.999 325.396C188.611 323.827 193.133 321.676 193.133 318.069C193.133 315.287 190.308 314.294 187.985 314.808C183.309 315.842 179.868 320.559 175 320.961C170.014 321.372 158.931 309.975 155.603 317.232C149.642 330.235 159.352 348.015 174 348.643C179.136 348.863 184.795 344.095 189 341.603C201.13 334.415 209.001 332.171 209 317C209 314.121 209.705 309.847 207.973 307.333C206.201 304.761 202.946 305.671 201.742 308.229C199.357 313.298 202.987 319.974 199.397 324.671C191.659 334.794 163.256 347.65 163 326z"/>
  <path style="fill:#3f6882;stroke:none" d="M356.333 305.667L356.667 306.333L356.333 305.667M523 305L523 309L524 309L523 305M564.333 305.667L564.667 306.333L564.333 305.667M600 305L600 308L601 308L600 305M345 306L346 307L345 306M363.667 306.333L364.333 306.667L363.667 306.333M371 306L371 309L372 309L371 306M400 306L400 307L408 307L400 306M461 306L461 307L469 307L461 306M528 306L528 310L529 310L528 306M555 306L555 307L559 307L555 306M581 306L581 307L585 308L585 307L581 306M606.667 306.333L607.333 306.667L606.667 306.333M632 306L633 307L632 306M635 306L636 307L635 306M681.333 306.667L681.667 307.333L681.333 306.667M722 306L722 307L730 307L722 306M335 307L335 337L336 337L335 307z"/>
  <path style="fill:#2e2e2e;stroke:none" d="M336 307L336 337C342.612 334.805 342.612 309.195 336 307z"/>
  <path style="fill:#3f6882;stroke:none" d="M339 307L340 308L339 307z"/>
  <path style="fill:#2e2e2e;stroke:none" d="M362 307L363 337L365 337L366 307L362 307M555 307L555 328L559 328L559 307L555 307M581 307L581 337C587.612 334.805 587.612 309.195 581 307z"/>
  <path style="fill:#3f6882;stroke:none" d="M590 307L590 337L591 337L590 307M610 307L610 314L611 314L610 307M616 307L616 313L617 313L616 307z"/>
  <path style="fill:#2e2e2e;stroke:none" d="M673 307L673 316L676 316L675 307L673 307z"/>
  <path style="fill:#3f6882;stroke:none" d="M675 307L676 308L675 307M361 308L361 336L362 336L361 308M574 308L574 336L575 336L574 308M580 308L580 336L581 336L580 308M636 308L636 315L642 315L642 314L637 314L636 308M340 309L340 335L341 335L340 309M559 310L559 326L560 326L559 310M518 312L518 315L519 315L518 312M524 312L524 315L525 315L524 312M533 312L533 315L534 315L533 312M667 312L667 343L668 343L667 312M681 312L682 313L681 312M439 313L440 314L439 313M527 313L527 316L528 316L527 313M600 313L600 316L601 316L600 313M434 314L435 315L434 314M460 314L461 315L460 314M606 314L607 315L606 314M611 314L611 315L616 315L611 314M632 314L633 315L632 314M468 315L469 316L468 315z"/>
  <path style="fill:#2e2e2e;stroke:none" d="M518 315L518 319L519 319L518 315z"/>
  <path style="fill:#3f6882;stroke:none" d="M607 315L608 316L607 315M626.333 315.667L626.667 316.333L626.333 315.667M633 315L634 316L633 315M681 315L681 319L682 319L681 315M728.667 315.333L729.333 315.667L728.667 315.333M608 316L609 317L608 316M634.333 316.667L634.667 317.333L634.333 316.667M519 317L518 338L519 338L519 317M532 317L532 320L533 320L532 317M601 317L602 318L601 317M627 317L628 318L627 317M525 318L526 323L527 323L525 318M602 318L603 319L602 318M609 318L610 319L609 318M628 318L629 319L628 318M635 318L636 319L635 318M603 319L604 320L603 319M610 319L611 320L610 319M435 320L436 321L435 320M461 320L462 321L461 320M468 320L469 321L468 320M722 320L723 321L722 320M729.667 320.333L730.333 320.667L729.667 320.333M460.333 321.667L460.667 322.333L460.333 321.667M604 321L605 322L604 321M630 321L631 322L630 321M637 321L638 322L637 321M673 321L673 322L677 322L673 321M439 322L440 323L439 322M605 322L606 323L605 322M612 322L613 323L612 322M631 322L632 323L631 322M638 322L639 323L638 322z"/>
  <path style="fill:#2e2e2e;stroke:none" d="M673 322L673 337L677 337L677 322L673 322z"/>
  <path style="fill:#3f6882;stroke:none" d="M520 323L520 326L521 326L520 323M606 323L607 324L606 323M613 323L614 324L613 323M639 323L640 324L639 323M677 323L677 336L678 336L677 323M460 324L461 325L460 324M531.333 324.667L531.667 325.333L531.333 324.667M632 324L633 325L632 324M439 325L440 326L439 325M607 325L608 326L607 325M614 325L615 326L614 325M633 325L634 326L633 325M640 325L641 326L640 325M608 326L609 327L608 326M615 326L616 327L615 326M641 326L642 327L641 326M439 327L439 338L440 338L439 327M460 327L461 328L460 327M555 328L555 329L559 329L555 328M601 328L601 329L604 329L601 328M605 328L606 329L605 328M616 328L616 336L617 336L616 328M626 328L626 329L631 329L626 328M635 328L636 329L635 328M564 329L565 330L564 329M610 329L610 336L611 336L610 329M521.333 330.667L521.667 331.333L521.333 330.667M530 330L530 333L531 333L530 330M600 330L601 331L600 330M636 330L636 336L637 336L636 330M563 331L564 332L563 331M562 332L563 333L562 332M560 333L561 334L560 333M600 333L601 334L600 333M600 335L600 338L601 338L600 335M339 336L340 337L339 336M345.333 336.667L345.667 337.333L345.333 336.667M362 336L363 337L362 336M365 336L366 337L365 336M371.333 336.667L371.667 337.333L371.333 336.667M460 336L461 337L460 336M522 336L522 339L523 339L522 336M529 336L529 339L530 339L529 336M606 336L607 337L606 336M635 336L636 337L635 336M716 336L717 337L716 336M356.333 337.667L356.667 338.333L356.333 337.667M462 337L463 338L462 337M468 337L469 338L468 337M607.667 337.333L608.333 337.667L607.667 337.333M626 337L627 338L626 337M633.667 337.333L634.333 337.667L633.667 337.333M641.333 337.667L641.667 338.333L641.333 337.667M673 337L674 338L673 337M706 337L706 343L707 343L706 337M344 338L345 339L344 338M575 338L576 339L575 338M589 338L590 339L589 338M615 338L616 339L615 338M682 338L683 339L682 338M357 339L358 340L357 339M370 339L371 340L370 339M439.333 339.667L439.667 340.333L439.333 339.667M518 339L518 343L519 343L518 339M601 339L602 340L601 339M627 339L628 340L627 339M343 340L344 341L343 340M369 340L370 341L369 340M576 340L577 341L576 340M588 340L589 341L588 340M614 340L615 341L614 340M640 340L641 341L640 340M681 340L682 341L681 340M342 341L343 342L342 341M359 341L360 342L359 341M368 341L369 342L368 341M497 341L503 343L503 342L497 341M577 341L578 342L577 341M586 341L587 342L586 341M603 341L604 342L603 341M613 341L614 342L613 341M628.667 341.333L629.333 341.667L628.667 341.333M639 341L640 342L639 341M680 341L681 342L680 341M692 341L693 342L692 341M339.667 342.333L340.333 342.667L339.667 342.333M361 342L362 343L361 342M366 342L367 343L366 342M429 342L430 343L429 342M433.667 342.333L434.333 342.667L433.667 342.333M455 342L456 343L455 342M468 342L469 343L468 342M523.667 342.333L524.333 342.667L523.667 342.333M528 342L529 343L528 342M534 342L535 343L534 342M549 342L550 343L549 342M551 342L552 343L551 342M554 342L555 343L554 342M579.667 342.333L580.333 342.667L579.667 342.333M584.667 342.333L585.333 342.667L584.667 342.333M605 342L606 343L605 342M611 342L612 343L611 342M630.667 342.333L631.333 342.667L630.667 342.333M637 342L638 343L637 342M677.667 342.333L678.333 342.667L677.667 342.333M716 342L717 343L716 342M608 343L609 344L608 343M634 343L635 344L634 343z"/>
</svg>